<?xml version="1.0" encoding="UTF-8" standalone="no"?>
<!-- Created with Inkscape (http://www.inkscape.org/) -->

<svg
   xmlns:dc="http://purl.org/dc/elements/1.1/"
   xmlns:cc="http://creativecommons.org/ns#"
   xmlns:rdf="http://www.w3.org/1999/02/22-rdf-syntax-ns#"
   xmlns:svg="http://www.w3.org/2000/svg"
   xmlns="http://www.w3.org/2000/svg"
   xmlns:sodipodi="http://sodipodi.sourceforge.net/DTD/sodipodi-0.dtd"
   xmlns:inkscape="http://www.inkscape.org/namespaces/inkscape"
   width="96.706055mm"
   height="63.900215mm"
   viewBox="0 0 96.706055 63.900215"
   version="1.1"
   id="svg8"
   inkscape:version="0.92.3 (2405546, 2018-03-11)"
   sodipodi:docname="collaboration.svg">
  <defs
     id="defs2" />
  <sodipodi:namedview
     id="base"
     pagecolor="#ffffff"
     bordercolor="#666666"
     borderopacity="1.0"
     inkscape:pageopacity="0.0"
     inkscape:pageshadow="2"
     inkscape:zoom="0.7"
     inkscape:cx="69.785192"
     inkscape:cy="-176.34494"
     inkscape:document-units="mm"
     inkscape:current-layer="layer1"
     showgrid="false"
     fit-margin-top="0"
     fit-margin-left="10"
     fit-margin-right="10"
     fit-margin-bottom="0"
     inkscape:window-width="1920"
     inkscape:window-height="1025"
     inkscape:window-x="0"
     inkscape:window-y="27"
     inkscape:window-maximized="1" />
  <metadata
     id="metadata5">
    <rdf:RDF>
      <cc:Work
         rdf:about="">
        <dc:format>image/svg+xml</dc:format>
        <dc:type
           rdf:resource="http://purl.org/dc/dcmitype/StillImage" />
        <dc:title></dc:title>
      </cc:Work>
    </rdf:RDF>
  </metadata>
  <g
     inkscape:label="Layer 1"
     inkscape:groupmode="layer"
     id="layer1"
     transform="translate(-21.430936,-21.141381)"
     style="opacity:0.5">
    <path
       style="fill:#008000;stroke-width:0.12252862"
       d="m 67.764726,84.941444 c -0.87608,-0.0516 -1.97884,-0.15391 -2.45058,-0.22732 -0.47173,-0.0734 -1.51935,-0.21765 -2.32804,-0.32054 -2.34289,-0.29809 -6.76958,-1.23548 -8.94459,-1.89409 -0.40434,-0.12244 -1.21533,-0.36678 -1.80219,-0.54298 -1.03256,-0.31001 -1.06955,-0.33386 -1.14543,-0.73832 -0.0431,-0.22988 -0.0536,-3.24761 -0.0234,-6.70608 0.0544,-6.21225 0.0588,-6.30514 0.3709,-7.69931 0.56788,-2.53708 1.46999,-4.37341 3.14975,-6.41159 2.15233,-2.61158 5.32867,-4.4093 8.70126,-4.92467 1.41698,-0.21652 12.25829,-0.2575 13.80624,-0.0522 1.21188,0.16074 3.30975,0.78017 4.26673,1.25982 3.498,1.75324 6.26788,4.89728 7.46191,8.46988 0.63403,1.89706 0.68522,2.6257 0.68575,9.76076 l 4.7e-4,6.56829 -1.25592,0.55206 c -5.15955,2.26794 -12.84003,3.35717 -20.49291,2.90627 z"
       id="path857"
       inkscape:connector-curvature="0" />
    <path
       style="fill:#000080;stroke-width:0.12252862"
       d="m 92.277276,73.778184 c -0.0298,-0.0896 -0.077,-1.54137 -0.10488,-3.22614 -0.047,-2.84218 -0.0743,-3.15163 -0.37777,-4.2885 -0.82049,-3.07318 -2.14959,-5.50321 -4.17282,-7.62928 -1.83232,-1.92544 -3.87726,-3.31767 -6.25543,-4.25878 l -1.15646,-0.45764 0.61588,-0.68875 c 1.94588,-2.17613 3.16871,-4.99811 3.40449,-7.85668 l 0.0758,-0.91897 5.51379,9.3e-4 c 4.80212,9.2e-4 5.65278,0.0291 6.5907,0.21928 5.281484,1.0709 9.585464,5.0081 11.053754,10.11177 0.58813,2.04432 0.59382,2.12467 0.63406,8.9663 l 0.0386,6.55528 -1.33857,0.58276 c -3.08427,1.34275 -6.45801,2.18543 -10.607024,2.64935 -3.66975,0.41033 -3.85335,0.42155 -3.91409,0.23909 z"
       id="path855"
       inkscape:connector-curvature="0" />
    <path
       style="fill:#800000;stroke-width:0.12252862"
       d="m 46.506006,73.656484 c -4.20361,-0.43756 -8.04191,-1.17169 -12.06907,-2.30836 -1.01086,-0.28532 -2.10075,-0.57845 -2.42197,-0.6514 l -0.58403,-0.13264 0.0412,-6.68383 c 0.0276,-4.48486 0.0884,-6.91 0.18483,-7.37128 0.77168,-3.69266 2.37091,-6.48102 4.96783,-8.66175 1.09967,-0.92344 1.42168,-1.13732 2.77457,-1.84285 1.35154,-0.70484 3.01677,-1.23425 4.50552,-1.43242 1.7449,-0.23227 12.15187,-0.25979 12.37892,-0.0327 0.0809,0.0809 0.14704,0.37423 0.14704,0.65192 0,1.24627 0.76602,3.85183 1.56625,5.32748 0.56099,1.03448 0.77162,1.33935 1.71372,2.48045 l 0.78337,0.94884 -0.3469,0.12657 c -0.92096,0.33599 -1.14521,0.42876 -2.00104,0.82781 -3.4569,1.61184 -6.46939,4.67387 -8.14697,8.28092 -1.13077,2.43135 -1.53099,4.57232 -1.53207,8.1959 l -7.4e-4,2.41994 -0.45948,-0.0171 c -0.25272,-0.009 -0.92816,-0.0659 -1.50098,-0.1255 z"
       id="path853"
       inkscape:connector-curvature="0" />
    <path
       style="fill:#008000;stroke-width:0.12252862"
       d="m 69.135696,54.548754 c -2.56405,-0.26512 -5.15604,-1.55156 -6.98972,-3.46911 -4.23596,-4.42971 -4.07275,-11.65999 0.35822,-15.86897 1.47617,-1.40222 2.86358,-2.19888 4.85778,-2.78938 1.01726,-0.30122 1.3328,-0.33722 2.97585,-0.3395 1.55783,-0.002 1.9864,0.0403 2.81217,0.27893 4.55299,1.31546 7.445,4.46661 8.34318,9.09077 0.65963,3.39599 -0.555,7.20937 -3.12286,9.80432 -2.40684,2.43223 -5.81282,3.64676 -9.23462,3.29294 z"
       id="path851"
       inkscape:connector-curvature="0" />
    <path
       style="fill:#800000;stroke-width:0.12252862"
       d="m 48.710516,43.290824 c -3.76595,-0.67387 -7.01648,-3.30353 -8.4495,-6.83558 -0.63042,-1.55381 -0.88148,-3.38351 -0.71882,-5.23866 0.37935,-4.326578 3.37592,-8.04949 7.6488,-9.502809 6.6085,-2.247721 13.84714,2.50982 14.49198,9.524749 0.0595,0.64707 0.0775,1.2936 0.0401,1.43674 -0.0374,0.14314 -0.50327,0.66968 -1.0352,1.17008 -1.93647,1.82169 -3.16905,3.9439 -3.87953,6.67964 -0.31281,1.2045 -0.32224,1.22121 -0.86763,1.53666 -2.08611,1.20663 -4.78864,1.66607 -7.23019,1.22918 z"
       id="path849"
       inkscape:connector-curvature="0" />
    <path
       style="fill:#000080;stroke-width:0.12252862"
       d="m 87.798156,43.409184 c -1.29887,-0.21345 -2.02818,-0.39595 -2.78162,-0.69608 -0.75451,-0.30057 -0.76045,-0.30676 -0.83747,-0.87405 -0.29327,-2.16022 -1.30533,-4.56077 -2.68404,-6.36645 -0.66844,-0.87543 -2.26656,-2.42353 -3.05664,-2.96096 l -0.59898,-0.40744 0.074,-0.9933 c 0.30824,-4.13985 3.39954,-7.958554 7.59879,-9.386828 3.92528,-1.335088 8.06314,-0.349527 11.27388,2.685229 3.11425,2.943552 4.172064,7.988379 2.52583,12.045939 -1.11253,2.74211 -3.424,5.05239 -6.17861,6.17543 -1.65939,0.67653 -3.93501,1.00859 -5.33511,0.77851 z"
       id="path845"
       inkscape:connector-curvature="0" />
  </g>
</svg>
