<?xml version="1.0" encoding="UTF-8" standalone="no"?>
<!-- Created with Inkscape (http://www.inkscape.org/) -->

<svg
   xmlns:dc="http://purl.org/dc/elements/1.1/"
   xmlns:cc="http://creativecommons.org/ns#"
   xmlns:rdf="http://www.w3.org/1999/02/22-rdf-syntax-ns#"
   xmlns:svg="http://www.w3.org/2000/svg"
   xmlns="http://www.w3.org/2000/svg"
   xmlns:sodipodi="http://sodipodi.sourceforge.net/DTD/sodipodi-0.dtd"
   xmlns:inkscape="http://www.inkscape.org/namespaces/inkscape"
   width="47.422298mm"
   height="47.46862mm"
   viewBox="0 0 47.422298 47.46862"
   version="1.1"
   id="svg8"
   inkscape:version="0.92.3 (2405546, 2018-03-11)"
   sodipodi:docname="form.svg">
  <defs
     id="defs2" />
  <sodipodi:namedview
     id="base"
     pagecolor="#ffffff"
     bordercolor="#666666"
     borderopacity="1.0"
     inkscape:pageopacity="0.0"
     inkscape:pageshadow="2"
     inkscape:zoom="1.4"
     inkscape:cx="101.28476"
     inkscape:cy="12.341858"
     inkscape:document-units="mm"
     inkscape:current-layer="layer1"
     showgrid="false"
     fit-margin-top="0"
     fit-margin-left="0"
     fit-margin-right="0"
     fit-margin-bottom="0"
     inkscape:window-width="1920"
     inkscape:window-height="1025"
     inkscape:window-x="0"
     inkscape:window-y="27"
     inkscape:window-maximized="1" />
  <metadata
     id="metadata5">
    <rdf:RDF>
      <cc:Work
         rdf:about="">
        <dc:format>image/svg+xml</dc:format>
        <dc:type
           rdf:resource="http://purl.org/dc/dcmitype/StillImage" />
        <dc:title></dc:title>
      </cc:Work>
    </rdf:RDF>
  </metadata>
  <g
     inkscape:label="Layer 1"
     inkscape:groupmode="layer"
     id="layer1"
     transform="translate(-16.66828,-5.3346712)">
    <path
       style="fill:#000000;stroke-width:0.26458335"
       d="m 22.584084,52.647157 c -2.30112,-0.51679 -4.181578,-1.91748 -5.247825,-3.90893 -0.569608,-1.06386 -0.573469,-1.17947 -0.649943,-19.458764 -0.05392,-12.887378 0.0114,-18.744732 0.218333,-19.5791668 0.416525,-1.679594 1.334627,-2.751805 3.097546,-3.617486 l 1.523549,-0.748139 h 14.15521 14.15521 l 1.27423,0.627367 c 0.79939,0.393579 1.53886,1.026818 1.98437,1.699295 0.69257,1.045399 0.71343,1.195345 0.84244,6.0582898 l 0.13229,4.98636 1.82028,-1.327843 c 2.0814,-1.518333 3.3028,-1.720478 4.80095,-0.79457 1.79765,1.111009 3.36531,3.903898 3.39634,6.050819 0.0204,1.409391 -0.001,1.450553 -1.42656,2.717765 -0.79599,0.707684 -3.08437,2.423634 -5.08528,3.813221 l -3.63802,2.52652 -0.003,8.120348 c -0.003,7.976564 -0.0137,8.144104 -0.62733,9.462014 -0.79019,1.69697 -2.25285,2.91743 -3.92656,3.27638 -1.25428,0.269 -25.63759,0.35682 -26.79665,0.0965 z m 27.01264,-4.34496 c 0.46313,-0.51128 0.51043,-1.10341 0.58302,-7.297593 l 0.079,-6.741168 -1.13734,0.776893 c -0.86226,0.588992 -2.35318,1.074502 -6.16442,2.007412 -2.76489,0.676789 -5.33992,1.229855 -5.72229,1.22904 -0.90142,-0.0019 -1.39366,-0.607449 -1.18138,-1.453256 l 0.16688,-0.664895 h -5.43753 c -5.39411,0 -5.43936,-0.0048 -5.66841,-0.595312 -0.15276,-0.393859 -0.1165,-0.774383 0.10713,-1.12448 0.32046,-0.501668 0.65727,-0.531873 6.48174,-0.58126 l 6.14372,-0.05209 1.15055,-1.866135 1.15055,-1.866136 h -6.84648 c -3.76557,0 -7.13566,-0.109942 -7.48908,-0.244316 -0.8569,-0.325789 -1.08245,-1.01414 -0.58238,-1.77734 l 0.40897,-0.624177 h 7.95291 7.95291 l 4.33399,-2.976563 4.33398,-2.976562 0.0101,-5.735789 c 0.009,-4.87078 -0.0526,-5.7984908 -0.40564,-6.1515628 -0.36727,-0.367272 -2.01435,-0.415774 -14.11953,-0.415774 -13.46308,0 -13.71599,0.0096 -14.40089,0.548371 l -0.69714,0.5483698 v 18.474221 18.474222 l 0.93525,0.82116 0.93525,0.82115 h 13.31124 c 13.19249,0 13.31574,-0.005 13.81528,-0.55643 z m -24.23452,-25.10815 c -0.63699,-0.636988 -0.64734,-0.771879 -0.11729,-1.528629 l 0.41188,-0.588038 h 9.52739 c 6.0615,0 9.71357,0.09964 10.03917,0.273892 0.61923,0.331403 0.67076,1.381405 0.096,1.956167 -0.36254,0.362547 -1.63274,0.415774 -9.92187,0.415774 -9.15332,0 -9.52574,-0.01964 -10.03527,-0.529166 z m -0.0975,-5.851393 c -0.25543,-0.364677 -0.31927,-0.756527 -0.1832,-1.12448 0.20748,-0.561035 0.27376,-0.56521 10.06945,-0.634154 10.36457,-0.07295 10.58413,-0.04998 10.58413,1.107215 0,1.19882 -0.10539,1.211145 -10.35667,1.211145 -9.59865,0 -9.72662,-0.0071 -10.11371,-0.559726 z m 18.02298,17.055029 c 1.05503,-0.248862 1.91823,-0.541044 1.91823,-0.649299 0,-0.108251 -0.5,-0.921398 -1.11111,-1.80699 l -1.1111,-1.61017 -1.39711,2.186099 c -0.7684,1.202354 -1.3995,2.289281 -1.40243,2.415395 -0.003,0.126113 0.26256,0.159128 0.58998,0.07337 0.32742,-0.08576 1.45852,-0.359542 2.51354,-0.608401 z m 9.7631,-5.135632 c 2.74308,-1.901346 5.09914,-3.566827 5.23568,-3.701068 0.15361,-0.151018 -0.33542,-1.10334 -1.28265,-2.497821 l -1.53091,-2.253745 -2.42152,1.686506 c -1.33183,0.927579 -3.7312,2.601583 -5.33193,3.720011 -1.60073,1.118427 -2.87489,2.163471 -2.83147,2.322319 0.12819,0.469001 2.77908,4.180794 2.98584,4.180794 0.10424,0 2.43387,-1.555647 5.17696,-3.456996 z m 8.14078,-5.96402 c 0.91128,-0.349691 0.27,-2.404356 -1.2505,-4.006589 -0.93028,-0.980276 -1.25344,-1.050008 -1.83928,-0.396875 -0.38309,0.427094 -0.30263,0.622125 1.03694,2.513542 0.79873,1.127786 1.49322,2.050521 1.54329,2.050521 0.0501,0 0.27937,-0.07227 0.50955,-0.160599 z"
       id="path826"
       inkscape:connector-curvature="0" />
  </g>
</svg>
