<?xml version="1.0" encoding="UTF-8" standalone="no"?>
<!-- Created with Inkscape (http://www.inkscape.org/) -->

<svg
   xmlns:dc="http://purl.org/dc/elements/1.1/"
   xmlns:cc="http://creativecommons.org/ns#"
   xmlns:rdf="http://www.w3.org/1999/02/22-rdf-syntax-ns#"
   xmlns:svg="http://www.w3.org/2000/svg"
   xmlns="http://www.w3.org/2000/svg"
   xmlns:sodipodi="http://sodipodi.sourceforge.net/DTD/sodipodi-0.dtd"
   xmlns:inkscape="http://www.inkscape.org/namespaces/inkscape"
   width="80mm"
   height="80mm"
   viewBox="0 0 80 80"
   version="1.1"
   id="svg8"
   inkscape:version="0.92.3 (2405546, 2018-03-11)"
   sodipodi:docname="mailinglist.svg">
  <defs
     id="defs2" />
  <sodipodi:namedview
     id="base"
     pagecolor="#ffffff"
     bordercolor="#666666"
     borderopacity="1.0"
     inkscape:pageopacity="0.0"
     inkscape:pageshadow="2"
     inkscape:zoom="0.35"
     inkscape:cx="-315.47195"
     inkscape:cy="-87.171312"
     inkscape:document-units="mm"
     inkscape:current-layer="layer1"
     showgrid="false"
     fit-margin-top="0"
     fit-margin-left="0"
     fit-margin-right="0"
     fit-margin-bottom="0"
     inkscape:window-width="1920"
     inkscape:window-height="1025"
     inkscape:window-x="0"
     inkscape:window-y="27"
     inkscape:window-maximized="1" />
  <metadata
     id="metadata5">
    <rdf:RDF>
      <cc:Work
         rdf:about="">
        <dc:format>image/svg+xml</dc:format>
        <dc:type
           rdf:resource="http://purl.org/dc/dcmitype/StillImage" />
        <dc:title></dc:title>
      </cc:Work>
    </rdf:RDF>
  </metadata>
  <g
     inkscape:label="Layer 1"
     inkscape:groupmode="layer"
     id="layer1"
     transform="translate(-54.742431,-45.769257)">
    <g
       id="g826"
       transform="matrix(0.37856521,0,0,0.37893797,53.192727,38.054991)">
      <path
         style="fill:#b3d8f6;stroke-width:0.26458332"
         d="m 172.72891,210.96836 -24.59356,-20.50095 -46.97623,0.009 -46.976233,0.009 -24.717209,20.23891 C 15.871215,221.85573 4.6198085,230.92035 4.4625539,230.86793 4.2584075,230.79993 4.1766364,202.819 4.1766364,133.03113 c 0,-93.645222 0.020144,-97.813557 0.480649,-99.461274 0.9105469,-3.257993 2.2207442,-5.491464 4.6718967,-7.964104 1.7760139,-1.791582 2.7179659,-2.504764 4.4288429,-3.353219 4.247807,-2.106563 -4.7585503,-1.934394 96.913405,-1.852635 l 90.88438,0.07308 1.71979,0.61898 c 4.88623,1.758634 8.40154,4.954395 10.58701,9.624627 1.69144,3.614526 1.59808,-1.025481 1.52134,75.613685 l -0.0698,69.71771 -0.77588,2.22281 c -2.31698,6.63791 -7.83114,11.05997 -15.03297,12.05565 l -1.25678,0.17375 v 20.07048 c 0,11.03877 -0.0723,20.25882 -0.1606,20.489 -0.0883,0.23018 -0.29668,0.4166 -0.46302,0.41425 -0.16633,-0.002 -11.36952,-9.22968 -24.89598,-20.5052 z m -45.80725,-73.8428 c 0.359,-0.13776 0.41852,-0.80236 0.41852,-4.67311 0,-4.4018 -0.0172,-4.54229 -0.70217,-5.72638 -0.92268,-1.59506 -4.02007,-5.57949 -4.33735,-5.57949 -0.13657,0 -1.2314,-0.90525 -2.43295,-2.01167 -5.41781,-4.98885 -12.38899,-8.41804 -19.911906,-9.79488 -3.601148,-0.65907 -11.929216,-0.68045 -15.345833,-0.0394 -10.880768,2.04157 -19.943427,7.74832 -25.641777,16.14658 l -1.480277,2.18164 0.0011,4.82864 0.0011,4.82865 h 34.506486 c 18.978567,0 34.694817,-0.0723 34.924997,-0.1606 z M 96.068329,101.53882 c 0.682903,-0.16124 2.362192,-0.82809 3.731752,-1.48188 8.172929,-3.901555 11.772049,-13.84612 8.059129,-22.267815 -3.79639,-8.611013 -14.253337,-12.509592 -22.916526,-8.54379 -4.947943,2.265053 -8.648977,7.077482 -9.627113,12.518072 -1.5856,8.819446 3.850971,17.293788 12.601692,19.643083 1.741032,0.46741 6.410838,0.54323 8.151066,0.13233 z"
         id="path832"
         inkscape:connector-curvature="0" />
      <path
         style="fill:#cdd6db;stroke-width:0.26458332"
         d="M 4.1757196,230.6448 C 4.1000017,230.44748 4.0714312,186.35224 4.1122297,132.65537 4.1829957,39.516821 4.2083274,34.951661 4.6627811,33.437204 5.6334209,30.202568 6.931285,28.02431 9.3291821,25.605392 11.105196,23.81381 12.047148,23.100628 13.758025,22.252173 18.005832,20.14561 8.9994747,20.317779 110.67143,20.399538 l 90.88438,0.07308 1.71979,0.61898 c 4.88623,1.758634 8.40154,4.954395 10.58701,9.624627 1.69144,3.614526 1.59808,-1.025481 1.52134,75.613685 l -0.0698,69.71771 -0.77588,2.22281 c -2.31644,6.63636 -7.83174,11.06027 -15.02906,12.05506 l -1.25285,0.17317 -0.0758,-69.00573 c -0.0724,-65.918992 -0.0974,-69.076742 -0.55857,-70.59323 -2.03183,-6.680713 -7.35378,-11.679335 -13.79329,-12.955272 -1.90653,-0.377764 -9.35303,-0.412176 -75.00937,-0.346647 l -72.892713,0.07275 -2.280113,0.816316 c -5.366703,1.921359 -9.327846,5.871099 -11.298513,11.265987 l -0.708874,1.940613 -0.07357,52.784373 c -0.08219,58.96786 -0.214029,54.66774 1.799149,58.68111 1.790239,3.56893 4.495617,6.25538 8.064005,8.0076 4.335664,2.12897 -0.143404,1.94373 50.721512,2.09771 l 45.429847,0.13753 10.20503,8.46667 10.20503,8.46667 -46.95512,0.13229 -46.95511,0.13229 -24.519467,20.06233 C 16.074718,221.6963 4.8772505,230.78717 4.6771639,230.86395 c -0.200087,0.0768 -0.4257453,-0.0218 -0.5014633,-0.21916 z M 198.10975,210.84032 c 0,-11.13234 0.0326,-15.68648 0.0725,-10.12031 0.0399,5.56617 0.0399,14.67446 0,20.24063 -0.0399,5.56617 -0.0725,1.01203 -0.0725,-10.12032 z m -25.52582,-0.56185 c -13.46068,-11.20813 -29.1174,-24.23719 -34.79271,-28.95346 l -10.31875,-8.57504 -44.895721,-0.005 c -50.157434,-0.005 -46.823269,0.11896 -51.015737,-1.90284 -1.818939,-0.87718 -2.68473,-1.52033 -4.527989,-3.36359 -1.863257,-1.86325 -2.473754,-2.68932 -3.346366,-4.52799 -0.587031,-1.23692 -1.228341,-2.9038 -1.425134,-3.70416 -0.294608,-1.1982 -0.357803,-10.75457 -0.357803,-54.10729 V 52.487204 l 0.774401,-2.362906 c 1.888027,-5.760876 6.536711,-10.091111 12.587058,-11.724804 1.620229,-0.437489 5.939708,-0.464373 74.612501,-0.464373 69.63254,0 72.96963,0.02148 74.6125,0.48065 3.26695,0.913048 5.49142,2.219756 7.95319,4.671896 2.59208,2.581934 3.92096,4.84759 4.75422,8.105587 0.5142,2.010487 0.52176,3.326056 0.52176,90.765436 0,70.81117 -0.0668,88.72264 -0.33073,88.71179 -0.1819,-0.007 -11.34401,-9.18388 -24.80469,-20.39201 z m -36.29172,-72.63909 26.23755,-0.17595 v -3.93563 c 0,-3.49573 -0.0632,-4.06015 -0.56537,-5.04958 -1.53262,-3.01967 -4.46874,-6.60888 -7.21648,-8.82165 -2.36167,-1.90187 -6.52386,-4.07233 -9.01919,-4.70323 -4.20515,-1.0632 -9.1921,-1.05807 -13.22917,0.0136 -2.30097,0.61081 -6.17783,2.53083 -8.19869,4.06041 -0.96316,0.72902 -1.87855,1.32549 -2.03421,1.32549 -0.15564,0 -1.01501,-0.68461 -1.90969,-1.52136 -10.14695,-9.48983 -25.30353,-12.99053 -39.781366,-9.18826 -9.124641,2.39639 -17.695689,8.59947 -22.731826,16.45159 l -0.882756,1.37636 v 4.99569 c 0,2.74764 0.07938,5.07508 0.17639,5.17209 0.226952,0.22695 45.339608,0.2272 79.154808,5.3e-4 z M 142.76517,107.65 c 1.92984,-0.59607 4.42172,-2.29408 5.55783,-3.7872 4.64787,-6.108418 2.61634,-14.734642 -4.23427,-17.979463 -1.716,-0.812792 -1.94707,-0.852384 -4.97459,-0.852384 -3.05642,0 -3.24185,0.03269 -4.96487,0.875289 -6.80622,3.328395 -8.8217,11.601138 -4.31714,17.720138 2.84156,3.86 8.13297,5.50621 12.93304,4.02362 z m -46.13426,-5.71682 c 3.41511,-0.86659 7.22856,-3.34616 9.39879,-6.111267 7.59934,-9.682335 3.39455,-23.775866 -8.322854,-27.896415 -1.470231,-0.517022 -2.257306,-0.606004 -5.423958,-0.613206 -3.224734,-0.0073 -3.943885,0.07333 -5.55625,0.623244 -4.705758,1.604936 -8.324298,4.776587 -10.448275,9.157917 -2.965982,6.118212 -2.244098,13.023212 1.939507,18.55184 4.197731,5.547297 11.501909,8.041607 18.41304,6.287887 z"
         id="path830"
         inkscape:connector-curvature="0" />
      <path
         style="fill:#41a4f3;stroke-width:0.26458332"
         d="m 172.58393,210.27847 c -13.46068,-11.20813 -29.1174,-24.23719 -34.79271,-28.95346 l -10.31875,-8.57504 -44.895721,-0.005 c -50.157434,-0.005 -46.823269,0.11896 -51.015737,-1.90284 -1.818939,-0.87718 -2.68473,-1.52033 -4.527989,-3.36359 -1.863257,-1.86325 -2.473754,-2.68932 -3.346366,-4.52799 -0.587031,-1.23692 -1.228341,-2.9038 -1.425134,-3.70416 -0.294608,-1.1982 -0.357803,-10.75457 -0.357803,-54.10729 V 52.487204 l 0.774401,-2.362906 c 1.888027,-5.760876 6.536711,-10.091111 12.587058,-11.724804 1.620229,-0.437489 5.939708,-0.464373 74.612501,-0.464373 69.63254,0 72.96963,0.02148 74.6125,0.48065 3.26695,0.913048 5.49142,2.219756 7.95319,4.671896 2.59208,2.581934 3.92096,4.84759 4.75422,8.105587 0.5142,2.010487 0.52176,3.326056 0.52176,90.765436 0,70.81117 -0.0668,88.72264 -0.33073,88.71179 -0.1819,-0.007 -11.34401,-9.18388 -24.80469,-20.39201 z m -36.29172,-72.63909 26.23755,-0.17595 v -3.93563 c 0,-3.49573 -0.0632,-4.06015 -0.56537,-5.04958 -1.53262,-3.01967 -4.46874,-6.60888 -7.21648,-8.82165 -2.36167,-1.90187 -6.52386,-4.07233 -9.01919,-4.70323 -4.20515,-1.0632 -9.1921,-1.05807 -13.22917,0.0136 -2.30097,0.61081 -6.17783,2.53083 -8.19869,4.06041 -0.96316,0.72902 -1.87855,1.32549 -2.03421,1.32549 -0.15564,0 -1.01501,-0.68461 -1.90969,-1.52136 -10.14695,-9.48983 -25.30353,-12.99053 -39.781366,-9.18826 -9.124641,2.39639 -17.695689,8.59947 -22.731826,16.45159 l -0.882756,1.37636 v 4.99569 c 0,2.74764 0.07938,5.07508 0.17639,5.17209 0.226952,0.22695 45.339608,0.2272 79.154808,5.3e-4 z M 142.76517,107.65 c 1.92984,-0.59607 4.42172,-2.29408 5.55783,-3.7872 4.64787,-6.108418 2.61634,-14.734642 -4.23427,-17.979463 -1.716,-0.812792 -1.94707,-0.852384 -4.97459,-0.852384 -3.05642,0 -3.24185,0.03269 -4.96487,0.875289 -6.80622,3.328395 -8.8217,11.601138 -4.31714,17.720138 2.84156,3.86 8.13297,5.50621 12.93304,4.02362 z m -46.13426,-5.71682 c 3.41511,-0.86659 7.22856,-3.34616 9.39879,-6.111267 7.59934,-9.682335 3.39455,-23.775866 -8.322854,-27.896415 -1.470231,-0.517022 -2.257306,-0.606004 -5.423958,-0.613206 -3.224734,-0.0073 -3.943885,0.07333 -5.55625,0.623244 -4.705758,1.604936 -8.324298,4.776587 -10.448275,9.157917 -2.965982,6.118212 -2.244098,13.023212 1.939507,18.55184 4.197731,5.547297 11.501909,8.041607 18.41304,6.287887 z"
         id="path828"
         inkscape:connector-curvature="0" />
    </g>
  </g>
</svg>
