<?xml version="1.0" encoding="UTF-8" standalone="no"?>
<!-- Created with Inkscape (http://www.inkscape.org/) -->

<svg
   xmlns:dc="http://purl.org/dc/elements/1.1/"
   xmlns:cc="http://creativecommons.org/ns#"
   xmlns:rdf="http://www.w3.org/1999/02/22-rdf-syntax-ns#"
   xmlns:svg="http://www.w3.org/2000/svg"
   xmlns="http://www.w3.org/2000/svg"
   xmlns:sodipodi="http://sodipodi.sourceforge.net/DTD/sodipodi-0.dtd"
   xmlns:inkscape="http://www.inkscape.org/namespaces/inkscape"
   width="48.418751mm"
   height="59.470913mm"
   viewBox="0 0 48.418751 59.470913"
   version="1.1"
   id="svg8"
   inkscape:version="0.92.3 (2405546, 2018-03-11)"
   sodipodi:docname="pdf.svg">
  <defs
     id="defs2" />
  <sodipodi:namedview
     id="base"
     pagecolor="#ffffff"
     bordercolor="#666666"
     borderopacity="1.0"
     inkscape:pageopacity="0.0"
     inkscape:pageshadow="2"
     inkscape:zoom="0.49497475"
     inkscape:cx="43.616987"
     inkscape:cy="-216.41751"
     inkscape:document-units="mm"
     inkscape:current-layer="layer1"
     showgrid="false"
     fit-margin-top="0"
     fit-margin-left="0"
     fit-margin-right="0"
     fit-margin-bottom="0"
     inkscape:window-width="1920"
     inkscape:window-height="1025"
     inkscape:window-x="0"
     inkscape:window-y="27"
     inkscape:window-maximized="1" />
  <metadata
     id="metadata5">
    <rdf:RDF>
      <cc:Work
         rdf:about="">
        <dc:format>image/svg+xml</dc:format>
        <dc:type
           rdf:resource="http://purl.org/dc/dcmitype/StillImage" />
        <dc:title></dc:title>
      </cc:Work>
    </rdf:RDF>
  </metadata>
  <g
     inkscape:label="Layer 1"
     inkscape:groupmode="layer"
     id="layer1"
     transform="translate(-9.1086535,-13.946063)">
    <path
       style="fill:#000000;stroke-width:0.26458332"
       d="m 17.044441,73.253324 c -2.058574,-0.63764 -3.905181,-2.38608 -4.453723,-4.21694 -0.168885,-0.56369 -0.307064,-1.87428 -0.307064,-2.91243 v -1.88753 h -0.814103 c -0.547019,0 -1.067831,-0.25373 -1.5875005,-0.7734 l -0.773397,-0.77339 v -8.63967 -8.63966 l 0.773397,-0.7734 c 0.5196695,-0.51967 1.0404815,-0.77339 1.5875005,-0.77339 h 0.814103 v -12.26986 c 0,-13.559577 0.02103,-13.754963 1.664899,-15.467449 0.466753,-0.486237 1.324893,-1.141524 1.906976,-1.456194 1.037302,-0.560758 1.313109,-0.573636 13.879147,-0.648038 l 12.82081,-0.07591 7.48596,7.482503 7.48596,7.482508 v 19.39759 c 0,13.27283 -0.0922,19.76388 -0.2921,20.55762 -0.35725,1.41879 -1.77193,3.12583 -3.24206,3.91208 l -1.09605,0.58619 -17.59479,0.0471 c -9.67714,0.0259 -17.893221,-0.0453 -18.257965,-0.15832 z m 35.495675,-4.01111 c 1.21556,-0.65055 1.22504,-0.82955 1.08076,-20.4021 l -0.13593,-18.43903 -4.97352,-0.0818 -4.97352,-0.0818 -0.83323,-0.79375 c -1.38678,-1.32108 -1.44105,-1.55261 -1.58144,-6.746872 l -0.13229,-4.894792 -11.61606,0.07853 c -6.94159,0.04693 -11.811582,0.183175 -12.101945,0.338573 -1.264041,0.676493 -1.29518,1.024765 -1.221704,13.664101 l 0.06888,11.84796 15.831879,0.13229 15.83188,0.1323 0.63844,0.74235 0.63843,0.74236 v 8.56945 8.56945 l -0.63843,0.74236 -0.63844,0.74236 -15.83188,0.13229 -15.831879,0.13229 -0.08537,1.04669 c -0.127885,1.56801 0.178875,2.77504 0.884625,3.48079 l 0.631897,0.6319 h 17.227337 c 11.83449,0 17.39456,-0.0895 17.76151,-0.28588 z m -34.43563,-11.3253 v -1.8216 l 1.40651,-0.17573 c 2.47022,-0.30863 3.9054,-1.59411 3.932,-3.52187 0.0357,-2.58667 -1.42191,-3.56625 -5.13498,-3.45097 l -2.452487,0.0761 -0.07162,5.35781 -0.07162,5.35781 h 1.196103 1.196104 z m 0.0529,-5.52059 c 0.0789,-1.51345 0.084,-1.5218 0.964,-1.60611 1.0993,-0.10532 1.89348,0.55149 1.89348,1.56597 0,0.91517 -0.8512,1.56149 -2.05645,1.56149 h -0.88038 z m 12.4136,7.07336 c 2.49847,-0.69401 3.93763,-2.65084 3.93763,-5.35403 0,-3.72785 -2.18767,-5.34263 -7.01146,-5.17535 l -2.38125,0.0826 -0.0716,5.35781 -0.0716,5.35782 2.32058,-0.002 c 1.27632,-8e-4 2.75131,-0.12112 3.27775,-0.26735 z m -2.94154,-5.11917 v -3.60784 l 0.8599,5.3e-4 c 1.14567,5.3e-4 2.62293,0.76923 3.05008,1.58709 0.20919,0.40054 0.30799,1.2666 0.25046,2.19553 -0.12326,1.99038 -1.02538,3.00294 -2.90492,3.26056 l -1.25552,0.17197 z m 11.05748,3.20518 0.0773,-2.05052 h 1.84095 1.84096 v -1.05833 -1.05833 h -1.82544 -1.82544 l -0.0947,-1.19063 -0.0947,-1.19062 h 2.05242 2.05243 v -1.05834 -1.05833 h -3.30729 -3.30729 v 5.43845 5.43846 l 1.25677,-0.0806 1.25677,-0.0806 z"
       id="path826"
       inkscape:connector-curvature="0" />
  </g>
</svg>
